<svg version="1.1" viewBox="0.0 0.0 192.0 192.0" fill="none" stroke="none" stroke-linecap="square" stroke-miterlimit="10" xmlns:xlink="http://www.w3.org/1999/xlink" xmlns="http://www.w3.org/2000/svg"><clipPath id="p.0"><path d="m0 0l192.0 0l0 192.0l-192.0 0l0 -192.0z" clip-rule="nonzero"/></clipPath><g clip-path="url(#p.0)"><path fill="#000000" fill-opacity="0.0" d="m0 0l192.0 0l0 192.0l-192.0 0z" fill-rule="evenodd"/><path fill="#000000" d="m96.0 192.0l0 0c-53.019337 0 -96.0 -42.980667 -96.0 -96.0l0 0c0 -25.460785 10.114257 -49.878757 28.117748 -67.88225c18.003494 -18.00349 42.421467 -28.117748 67.88225 -28.117748l0 0c53.019333 0 96.0 42.980663 96.0 96.0l0 0c0 53.019333 -42.980667 96.0 -96.0 96.0z" fill-rule="evenodd"/><path fill="#00ff88" d="m41.170948 151.74796l0 -101.10365l46.204723 0l0 101.10365z" fill-rule="evenodd"/><path stroke="#00ff88" stroke-width="1.0" stroke-linejoin="round" stroke-linecap="butt" d="m41.170948 151.74796l0 -101.10365l46.204723 0l0 101.10365z" fill-rule="evenodd"/><path fill="#ffdd00" d="m116.157265 151.74796l0 -101.10365l17.291344 0l0 101.10365z" fill-rule="evenodd"/><path stroke="#ffdd00" stroke-width="1.0" stroke-linejoin="round" stroke-linecap="butt" d="m116.157265 151.74796l0 -101.10365l17.291344 0l0 101.10365z" fill-rule="evenodd"/><path fill="#00bbff" d="m133.49559 151.74796l0 -101.10365l17.291336 0l0 101.10365z" fill-rule="evenodd"/><path stroke="#00bbff" stroke-width="1.0" stroke-linejoin="round" stroke-linecap="butt" d="m133.49559 151.74796l0 -101.10365l17.291336 0l0 101.10365z" fill-rule="evenodd"/><path fill="#ff0066" d="m87.39162 151.74796l0 -101.10365l28.913383 0l0 101.10365z" fill-rule="evenodd"/><path stroke="#ff0066" stroke-width="1.0" stroke-linejoin="round" stroke-linecap="butt" d="m87.39162 151.74796l0 -101.10365l28.913383 0l0 101.10365z" fill-rule="evenodd"/><path fill="#000000" d="m152.6922 152.69106l0 -63.15442l-56.78739 63.15442z" fill-rule="evenodd"/><path stroke="#000000" stroke-width="2.0" stroke-linejoin="round" stroke-linecap="butt" d="m152.6922 152.69106l0 -63.15442l-56.78739 63.15442z" fill-rule="evenodd"/><path fill="#000000" d="m110.00352 49.68709l-13.984253 15.1023445l-13.984253 -15.1023445z" fill-rule="evenodd"/><path stroke="#000000" stroke-width="2.0" stroke-linejoin="round" stroke-linecap="butt" d="m110.00352 49.68709l-13.984253 15.1023445l-13.984253 -15.1023445z" fill-rule="evenodd"/><path fill="#000000" d="m39.30638 152.69106l0 -63.15442l56.7874 63.15442z" fill-rule="evenodd"/><path stroke="#000000" stroke-width="2.0" stroke-linejoin="round" stroke-linecap="butt" d="m39.30638 152.69106l0 -63.15442l56.7874 63.15442z" fill-rule="evenodd"/></g></svg>