<svg version="1.1" viewBox="0.0 0.0 32.0 32.0" fill="none" stroke="none" stroke-linecap="square" stroke-miterlimit="10" xmlns:xlink="http://www.w3.org/1999/xlink" xmlns="http://www.w3.org/2000/svg"><clipPath id="p.0"><path d="m0 0l32.0 0l0 32.0l-32.0 0l0 -32.0z" clip-rule="nonzero"/></clipPath><g clip-path="url(#p.0)"><path fill="#000000" fill-opacity="0.0" d="m0 0l32.0 0l0 32.0l-32.0 0z" fill-rule="evenodd"/><path fill="#000000" d="m16.0 31.11811l0 0c-8.349502 0 -15.118111 -6.768608 -15.118111 -15.118111l0 0c0 -4.009572 1.5927963 -7.8549223 4.427992 -10.690119c2.835196 -2.8351955 6.6805463 -4.427992 10.690119 -4.427992l0 0c8.349503 0 15.118111 6.7686086 15.118111 15.118111l0 0c0 8.349503 -6.768608 15.118111 -15.118111 15.118111z" fill-rule="evenodd"/><path fill="#00bbff" d="m7.416953 23.20735l0 -14.267717l17.133858 0l0 14.267717z" fill-rule="evenodd"/><path fill="#ffdd00" d="m7.4198794 23.20735l0 -14.267717l14.425196 0l0 14.267717z" fill-rule="evenodd"/><path fill="#ff0066" d="m7.4504967 23.20735l0 -14.267717l11.716536 0l0 14.267717z" fill-rule="evenodd"/><path fill="#00ff88" d="m7.4330707 23.207886l0 -14.267715l7.1811023 0l0 14.267715z" fill-rule="evenodd"/><path fill="#000000" d="m24.996908 26.015278l0 -12.472442l-12.472442 12.472442z" fill-rule="evenodd"/><path fill="#000000" d="m18.856966 8.781097l-2.8503933 2.8661413l-2.8503942 -2.8661413z" fill-rule="evenodd"/><path fill="#000000" d="m7.002851 26.015278l0 -12.472442l12.472441 12.472442z" fill-rule="evenodd"/></g></svg>